<?xml version="1.0" encoding="utf-8"?>
<!-- Generator: Adobe Illustrator 27.2.0, SVG Export Plug-In . SVG Version: 6.00 Build 0)  -->
<svg version="1.1" id="Layer_1" xmlns="http://www.w3.org/2000/svg" xmlns:xlink="http://www.w3.org/1999/xlink" x="0px" y="0px"
	 viewBox="0 0 654.7 161.93" style="enable-background:new 0 0 654.7 161.93;" xml:space="preserve">
<style type="text/css">
	.st0{fill:#643695;}
	.st1{fill:#E5A82F;}
</style>
<g>
	<path class="st0" d="M437.57,25.85c0-4.68,0-11.07,0-15.75c-6.58,0-14.42,0-21,0c0,4.68,0,11.07,0,15.75
		C419.19,25.85,434.96,25.85,437.57,25.85z"/>
	<path class="st0" d="M332.59,136.09c0,4.67,0,11.07,0,15.74c13.79,0,28.2,0,41.99,0c0-4.67,0-11.07,0-15.74
		C371.97,136.09,342.82,136.09,332.59,136.09z"/>
	<path class="st0" d="M232.85,136.09c0,4.67,0,11.07,0,15.74c13.79,0,28.2,0,41.99,0c0-4.67,0-11.07,0-15.74
		C272.23,136.09,243.08,136.09,232.85,136.09z"/>
	<path class="st0" d="M201.36,52.09c0-4.68,0-11.07,0-15.75c-6.58,0-14.42,0-20.99,0c0,4.68,0,11.07,0,15.75
		C182.98,52.09,198.74,52.09,201.36,52.09z"/>
	<g>
		<path class="st0" d="M390.34,80.97c0.01-2.83-0.94-5.66-2.63-7.87c-2.42-3.27-6.38-5.27-10.49-5.25c0,0-30.82,0-44.62,0
			c0-19.1,0-38.64,0-57.74c-10.22,0-21.27,0-31.5,0c0,27.89-0.01,95.03-0.01,99.74c-4.71,0-21.93,0-23.62,0
			c-7.07,0.04-13.17-5.83-13.12-13.12c-0.01-0.09,0-27.35,0-39.37c-2.62,0-15.75,0-15.75,0v2.63c0,7.25-5.87,13.12-13.12,13.12
			h-41.99c-4.11-0.01-8.07,1.97-10.49,5.24c-1.69,2.21-2.64,5.05-2.63,7.88c0,0,0,41.99,0,41.99c0,7.25-5.87,13.12-13.12,13.12
			h-2.62l0,10.5c4.68,0,34.12,0,34.12,0c4.11,0.02,8.05-1.98,10.49-5.24c1.69-2.21,2.64-5.05,2.63-7.88c0,0,0-37.78,0-55.11
			c12.01,0,24.73,0,36.74,0c0,6.58,0,23.62,0,23.62c-0.01,4.11,1.98,8.07,5.25,10.49c2.21,1.69,5.03,2.64,7.87,2.63l57.75,0
			c3.36-0.01,6.37-1.23,8.75-3.35c2.75-2.44,4.38-6.05,4.37-9.78c0,0,0-24.19,0-28.87c8.42,0,37.32,0,42,0c0,6.58,0,26.25,0,26.25
			c-0.18,3.69,0.25,7.54,2.63,10.49c2.47,3.27,6.24,5.24,10.49,5.25c1.9,0,83.98,0,83.98,0c2.83,0.01,5.67-0.94,7.87-2.63
			c3.27-2.43,5.27-6.38,5.25-10.49c0,0,0-44.76,0-65.62c-20.86,0-65.62,0-65.62,0c-2.83-0.01-5.66,0.94-7.87,2.63
			c-3.27,2.42-5.27,6.38-5.25,10.49c0,0,0,31.5,0,31.5c-0.02,4.12,1.98,8.05,5.24,10.49c0,0,0,0,0.01,0
			c2.21,1.69,5.04,2.64,7.87,2.63c0,0,18.95,0,23.63,0c0-2.62,0-7.89,0-10.5c-6.6,0-14.41,0-21.01,0c0-12.02,0-24.72,0-36.75h0v0
			c10.23,0,21.27,0,31.5,0c0,0,0,38.7,0,57.75c-20.86,0-42.13,0-62.99,0C390.34,105,390.34,80.97,390.34,80.97z"/>
	</g>
	<path class="st0" d="M156.73,83.59c-2.43-3.27-6.38-5.27-10.49-5.25c0,0-27.37,0-39.38,0c0-10.22,0-21.27,0-31.5
		c17.34,0,35.16,0,52.5,0c0-2.62,0-7.88,0-10.5c-22.62,0-70.88,0-70.88,0c-4.11-0.02-8.07,1.98-10.49,5.25
		c-1.69,2.21-2.64,5.04-2.63,7.87c0,0,0,27.36,0,39.37c17.34,0,35.16,0,52.5,0c0,12.01,0,24.73,0,36.74
		c-17.98,0-65.62,0.01-65.62,0.01c-7.25,0-13.12-5.87-13.12-13.12c0,0,0-34.31,0-49.88c-10.22,0-21.27,0-31.49,0
		c0,19.1,0,60.37,0,60.37c-0.02,4.1,1.97,8.07,5.24,10.49c2.21,1.69,5.05,2.66,7.88,2.64h115.49c2.84,0.01,5.66-0.95,7.87-2.64
		c0.29-0.21,0.55-0.43,0.82-0.67c2.79-2.41,4.45-6.09,4.43-9.82v-31.5C159.37,88.62,158.42,85.8,156.73,83.59z"/>
	<g>
		<path class="st1" d="M505.83,10.1v10.49h7.87c7.25,0,13.12,5.88,13.12,13.12v94.5c0,7.25-5.88,13.12-13.12,13.12h-7.87v10.49
			h78.74v-10.49h-26.24V88.83h41.99c0,0,0-13.12,0-15.74h-41.99V20.59c17.32,0,55.11,0,55.11,0c7.25,0,13.12,5.88,13.12,13.12
			c0,0,0,10.5,0,13.12h10.5V10.1H505.83z"/>
		<path class="st0" d="M626.57,128.21c0,7.25-5.87,13.12-13.12,13.12l-13.13,0c0,2.62,0,7.88,0,10.5c8.42,0,36.75,0,36.75,0
			s0-30.16,0-36.74c-2.62,0-7.88,0-10.5,0C626.57,117.7,626.57,128.21,626.57,128.21z"/>
	</g>
</g>
</svg>
